<?xml version="1.0" encoding="iso-8859-1"?>
<!-- Generator: Adobe Illustrator 19.0.0, SVG Export Plug-In . SVG Version: 6.00 Build 0)  -->
<svg version="1.1" id="Capa_1" xmlns="http://www.w3.org/2000/svg" xmlns:xlink="http://www.w3.org/1999/xlink" x="0px" y="0px"
	 viewBox="0 0 387.4 387.4" style="enable-background:new 0 0 387.4 387.4;" xml:space="preserve">
<path style="fill:#ED664C;" d="M193.7,10c101.5,0,183.7,82.3,183.7,183.7s-82.2,183.7-183.7,183.7S10,295.2,10,193.7
	S92.2,10,193.7,10z M164.8,273.6l130.3-130.4l-29.4-29.4L164.8,214.7l-43.1-43.1L92.3,201L164.8,273.6z"/>
<polygon style="fill:#FDC75B;" points="295.1,143.2 164.8,273.6 92.3,201 121.7,171.6 164.8,214.7 265.7,113.8 "/>
<path d="M193.7,387.4c106.8,0,193.7-86.9,193.7-193.7S300.5,0,193.7,0S0,86.9,0,193.7S86.9,387.4,193.7,387.4z M193.7,20
	c95.8,0,173.7,77.9,173.7,173.7s-77.9,173.7-173.7,173.7S20,289.5,20,193.7S97.9,20,193.7,20z"/>
<path d="M157.8,280.7c1.9,1.9,4.4,2.9,7.1,2.9s5.2-1.1,7.1-2.9l130.3-130.4c3.9-3.9,3.9-10.2,0-14.1l-29.5-29.5
	c-1.9-1.9-4.4-2.9-7.1-2.9s-5.2,1.1-7.1,2.9l-93.8,93.8l-36-36c-3.9-3.9-10.2-3.9-14.1,0l-29.4,29.4c-3.9,3.9-3.9,10.2,0,14.1
	L157.8,280.7z M121.7,185.7l36,36c3.9,3.9,10.2,3.9,14.1,0l93.8-93.8l15.3,15.3L164.8,259.5l-58.4-58.4L121.7,185.7z"/>
<g>
</g>
<g>
</g>
<g>
</g>
<g>
</g>
<g>
</g>
<g>
</g>
<g>
</g>
<g>
</g>
<g>
</g>
<g>
</g>
<g>
</g>
<g>
</g>
<g>
</g>
<g>
</g>
<g>
</g>
</svg>
